<?xml version="1.0"?>
<svg xmlns="http://www.w3.org/2000/svg" xmlns:xlink="http://www.w3.org/1999/xlink" xmlns:svgjs="http://svgjs.com/svgjs" version="1.1" width="512" height="512" x="0" y="0" viewBox="0 0 512.002 512.002" style="enable-background:new 0 0 512 512" xml:space="preserve" class=""><g>
<g xmlns="http://www.w3.org/2000/svg">
	<g>
		<path d="M376.365,136.025c8.436-2.347,14.635-10.066,14.635-19.25c0-11.046-8.954-20-20-20c-11.046,0-20,8.954-20,20    c0,5.498,2.221,10.476,5.812,14.091c-12.857-2.678-26.172-4.091-39.812-4.091c-46.882,0-92.195,16.882-127.594,47.536    c-32.449,28.099-54.681,66.043-63.332,107.706L0,312.497v38.019L19.384,369.9c30.217,30.217,69.909,45.326,109.602,45.326    s79.384-15.109,109.602-45.326l22.252-22.252c75.559,18.017,153.167,27.281,231.965,27.6l12.136,0.049l2.582-11.858    c2.972-13.647,4.479-27.666,4.479-41.666C512,234.943,454.948,161.198,376.365,136.025z M217.375,348.688    c-48.738,48.737-128.039,48.737-176.777,0L30,338.089v-1.981l108.118-26.14c29.268,11.067,58.942,20.74,88.966,29.009    L217.375,348.688z M241,306.774c0,1.639,0.041,3.281,0.082,4.923c-28.641-7.691-56.96-16.682-84.901-26.99    c7.796-33.896,26.283-64.701,52.864-87.718c28.505-24.685,64.617-38.803,102.24-40.105    c-15.735,13.103-29.408,28.644-40.424,46.145C251.326,234.063,241,269.938,241,306.774z M480.351,345.119    c-70.886-1.17-140.727-9.812-208.861-25.778c-0.314-4.179-0.49-8.378-0.49-12.567c0-31.174,8.731-61.522,25.25-87.765    c15.129-24.036,36.144-43.74,60.996-57.262C428.838,179.76,482,244.672,482,321.774C482,329.582,481.447,337.394,480.351,345.119z    " fill="#8598ff" data-original="#000000" style=""/>
	</g>
</g>
<g xmlns="http://www.w3.org/2000/svg">
</g>
<g xmlns="http://www.w3.org/2000/svg">
</g>
<g xmlns="http://www.w3.org/2000/svg">
</g>
<g xmlns="http://www.w3.org/2000/svg">
</g>
<g xmlns="http://www.w3.org/2000/svg">
</g>
<g xmlns="http://www.w3.org/2000/svg">
</g>
<g xmlns="http://www.w3.org/2000/svg">
</g>
<g xmlns="http://www.w3.org/2000/svg">
</g>
<g xmlns="http://www.w3.org/2000/svg">
</g>
<g xmlns="http://www.w3.org/2000/svg">
</g>
<g xmlns="http://www.w3.org/2000/svg">
</g>
<g xmlns="http://www.w3.org/2000/svg">
</g>
<g xmlns="http://www.w3.org/2000/svg">
</g>
<g xmlns="http://www.w3.org/2000/svg">
</g>
<g xmlns="http://www.w3.org/2000/svg">
</g>
</g></svg>
